<?xml version="1.0" standalone="no"?><!DOCTYPE svg PUBLIC "-//W3C//DTD SVG 1.1//EN" "http://www.w3.org/Graphics/SVG/1.1/DTD/svg11.dtd"><svg t="1781677741100" class="icon" viewBox="0 0 1024 1024" version="1.1" xmlns="http://www.w3.org/2000/svg" p-id="2734" xmlns:xlink="http://www.w3.org/1999/xlink" width="200" height="200"><path d="M174.766 0h674.468Q1024 0 1024 174.766v674.468Q1024 1024 849.234 1024H174.766Q0 1024 0 849.234V174.766Q0 0 174.766 0z" fill="#F4D329" p-id="2735"></path><path d="M154.013 137.26l68.76 68.27s7.39 23.414-6.901 32.285c0 0-39.926 34.005-28.345 74.92 0 0 4.681 31.795 50.028 45.097 0 0 24.393 1.48 30.314-2.71 0 0 44.857-25.874 50.028-60.629 0 0 5.42-17.002-6.901-41.156L210.45 147.122s34.995-13.062 46.577-48.798c0 0 9.361-38.935-4.931-57.668 0 0-4.44-5.91-11.332 0 0 0-28.834 26.614-44.356 29.324 0 0-8.381 3.7-14.052 2.46 0 0-12.572 0-25.634 12.572 0 0-22.923 27.604-2.71 52.248z" fill="#00C9FD" p-id="2736"></path><path d="M95.354 331.769S70.22 398.499 64.549 485.74c0 0-5.06 133.33 11.092 196.169 0 0 23.994 99.314 50.027 134.31 0 0 46.827 72.7 94.634 98.824 0 0 79.112 47.317 135.05 56.188 0 0 46.577 11.582 89.213 13.312h150.582s126.179-20.703 146.632-34.995c0 0 111.146-45.597 153.292-123.958 0 0 56.438-92.664 62.84-184.097 0 0 12.321-122.478 2.96-174.976 0 0-13.552-119.527-39.186-161.913 0 0-37.706-98.685-138.75-153.093 0 0-84.043-47.757-185.577-52.688 0 0-182.367-17.252-275.03 21.444 0 0-12.323 6.22-13.063 18.732 0 0-0.83 12.072 9.812 21.193 0 0 8.18 5.671 18.772 4.191 0 0 80.832-22.183 116.318-19.713 0 0 176.205-5.17 213.42 13.802 0 0 87.734 23.414 127.41 58.899 0 0 60.128 46.827 86.752 116.817 0 0 27.844 57.058 32.035 158.653 0 0 3.7 120.328-5.42 152.853 0 0-13.803 82.312-35.736 122.478 0 0-31.295 77.63-119.528 122.978 0 0-30.554 24.503-144.17 41.706 0 0-97.595 13.852-187.548 0 0 0-102.525-4-187.298-67.33 0 0-69.72-41.116-103.995-165.114 0 0-26.864-106.856-17.252-189.218 0 0 1.07-94.194 19.962-140.28l9.122-27.355s1.72-18.732-18.233-25.873c0 0-20.943-3.831-28.344 14.102z" fill="#FD6000" p-id="2737"></path><path d="M496.873 407.18l-69.75 69.57s-25.174 16.902-24.634 74.61c0 0-0.15 24.994 27.974 56.63l66.41 65.799s2.34 60.769-61.49 86.472c0 0-60.048 27.684-112.716-29.664 0 0-16.542-14.022-20.853-47.637V395.198s14.202-67.84 77.722-78.622c0 0 50.067-8.15 83.522 20.133 0 0 40.406 35.956 33.815 70.47z" fill="#FD6000" p-id="2738"></path><path d="M443.665 507.814l163.354-162.483s42.776-36.436 100.255-12.222c0 0 34.385 12.462 53.237 49.377 0 0 20.293 38.356 1.84 80.782 0 0-8.63 18.213-17.742 27.564l-49.587 48.927 53.318 54.148s28.144 31.405 20.473 74.55c0 0-0.96 41.467-47.937 72.392 0 0-33.075 23.733-87.253 9.35 0 0-2.88-0.72-23.014-13.421L450.726 580.015s-27.324-26.674-7.071-72.19z" fill="#FD6000" p-id="2739"></path></svg>