<?xml version="1.0" standalone="no"?><!DOCTYPE svg PUBLIC "-//W3C//DTD SVG 1.1//EN" "http://www.w3.org/Graphics/SVG/1.1/DTD/svg11.dtd"><svg t="1781677702879" class="icon" viewBox="0 0 1024 1024" version="1.1" xmlns="http://www.w3.org/2000/svg" p-id="1663" xmlns:xlink="http://www.w3.org/1999/xlink" width="200" height="200"><path d="M268.2 109.5h498.9c92 0 166.3 74.3 166.3 166.3v498.9c0 92-74.3 166.3-166.3 166.3H268.2c-92 0-166.3-74.3-166.3-166.3V275.9c0-92 74.3-166.4 166.3-166.4z m0 0" fill="#1081C5" p-id="1664"></path><path d="M610.1 357.1c-8.1 7.7-16.3 15.7-25.2 23.5-30.3 30-62.1 58.4-91.8 89.5-16.3 17.9-29.7 41.7-25.8 66.6 2.6 17.2 9.8 33.3 20.8 46.6C517 624 544 665.8 572.7 706.7h110.5c-35.7-45.4-70.3-91.7-105-137.7-8.6-11.9-19.3-24.4-20.4-39.4-1.5-13.4 8.1-24.4 16.3-33.3 47-46.9 93.9-92.8 140.8-139.4-35.1 0.6-69.9 0.4-104.8 0.2z m0 0" fill="#FFFFFF" p-id="1665"></path><path d="M878.9 453.2c-38.2-175.2-197.2-297.3-376.3-289-125.9 6-240 76-302.3 185.6-62.3 109.6-64.2 243.4-5.1 354.7 28.3 52.7 68.9 97.7 118.4 131.2 120.6 81.6 278 84.4 401.5 7.1 131.1-82.4 196.6-238.2 163.8-389.6z m-51.7 173.9C784.9 762.5 659 854.4 517.1 853.2c-140-1.1-263.2-92.5-304.9-226.1-41.6-133 7.2-277.6 120.9-358.2 49.9-35.6 109-56.2 170.3-59.1 105.1-5.3 206.2 41 270.7 124.2s84.3 192.6 53.1 293.1z m0 0" fill="#FFFFFF" p-id="1666"></path><path d="M396.6 357c-12 116.3-23 232.8-35.2 349.1h85.9c11.6-116.6 24.9-233.1 36.2-349.6-29 0.9-57.9 0.7-86.9 0.5z m0 0" fill="#FFFFFF" p-id="1667"></path></svg>